<svg xmlns="http://www.w3.org/2000/svg" width="32.869" height="16.069" viewBox="0 0 32.869 16.069"><g transform="matrix(0.087, -0.996, 0.996, 0.087, -296.035, 188.784)"><path d="M213.338,304.269c.093.256.1.259-.192.325-.034.008-.09.037-.091.058a1.365,1.365,0,0,1-.515.94,7.965,7.965,0,0,0-.532.639c-.165.2-.41.329-.492.6a.32.32,0,0,1-.159.16,2.883,2.883,0,0,1-.35.126c.1.147.032.3-.1.3-.218,0-.122.2-.228.269a1.282,1.282,0,0,0-.271.286c-.08.1-.14.213-.223.308-.1.116-.215.218-.323.327s-.224.174-.277.288c-.1.209-.316.3-.419.455-.118.174-.272.3-.4.46a2.8,2.8,0,0,1-.634.655,1.109,1.109,0,0,1-.683.3c-.049,0-.139.028-.143.054-.061.421-.554.307-.738.592-.039.061-.272.013-.409-.016-.045-.009-.2-.089-.05-.2a.445.445,0,0,0-.092-.152c-.015-.015-.081.01-.117.03s-.052.056-.083.078c-.088.064-.212.2-.26.174-.127-.061-.325-.208-.311-.289.072-.415-.283-.595-.45-.854-.472-.733-1.043-1.4-1.513-2.136-.564-.88-1.131-1.756-1.722-2.617a1.809,1.809,0,0,1-.2-.319,2.3,2.3,0,0,0-.563-.921c-.238-.211-.176-.548-.157-.842,0-.021.1-.055.143-.05.066.006.158.025.186.071.063.1.079.238.145.339.027.042.135.031.206.045a.724.724,0,0,0,.241.155c.058.013-.006-.017-.073-.037-.011,0-.035.033-.053.051l.187.162c.014-.03.029-.06-.061-.175a.72.72,0,0,1-.241-.155c-.034-.16.057-.326-.072-.488-.083-.1.064-.08.113-.083.069,0,.1.179.21.038.089-.11.182-.264.365-.079.028.029.189-.063.275.063.115.169.452.011.483.294.027.25.268.22.389.344s.059.247.077.371h-.23a.318.318,0,0,0-.035-.087c-.005-.007-.045.012-.07.019a.214.214,0,0,0,.079.068.472.472,0,0,1,.113.115l.143-.115c.071.014.165,0,.209.045a6.853,6.853,0,0,1,1.063,1.222,2.479,2.479,0,0,0,.436.387c.061.056.113.035.168-.015.122-.112.075-.247.076-.372,0-.728-.009-1.456.008-2.184.006-.276-.1-.567.074-.829a1.708,1.708,0,0,1-.08-.742c-.052-1.347.167-2.684.125-4.033s-.009-2.72-.009-4.08a12.256,12.256,0,0,0,.111-2.653c.018-.9-.081-1.811.024-2.7.154-1.309-.027-2.623.12-3.917.1-.891.035-1.773.094-2.656.016-.235.089-.465.107-.7s-.014-.5.01-.746a.821.821,0,0,1,.325-.552.647.647,0,0,1,.194-.071.77.77,0,0,1,.018.2,3.153,3.153,0,0,0-.077.31,2.635,2.635,0,0,0,.032.387,2.221,2.221,0,0,0,.277-.362c.046-.093-.005-.233.039-.328a.378.378,0,0,1,.233-.2c.148-.022.083.126.105.206a.486.486,0,0,0,.07.115.324.324,0,0,1,.045-.1c.043-.045.111-.124.14-.113a2.76,2.76,0,0,1,.479.229c.045.028.046.127.07.192a3.858,3.858,0,0,1,.114,1.332c0,.939,0,1.877,0,2.816a1.034,1.034,0,0,0,.062.246,1.508,1.508,0,0,0,.048-.267c0-.747,0-1.494,0-2.241,0-.1,0-.192,0-.287,0-.021.043-.041.069-.056,0,0,.035.023.038.039a.666.666,0,0,1,0,.113,28.589,28.589,0,0,0,.024,3.043c.106.985.076,1.963.086,2.943.018,1.858,0,3.716.006,5.574a4.182,4.182,0,0,0,.109,1.391c.02.057-.028.138-.044.208-.06-.065-.159-.124-.173-.2a2.547,2.547,0,0,1-.008-.458v-7.643c0-.153,0-.307,0-.459,0-.028-.038-.055-.059-.081-.018.031-.05.061-.051.093-.005.153,0,.306,0,.46V293.5c0,.9,0,1.8,0,2.7a2.774,2.774,0,0,0,.064.414,3.608,3.608,0,0,0,.046-.382c.007-.326,0-.651.008-.977,0-.044.086-.085.132-.127.031.038.085.074.088.114.01.153,0,.306,0,.459q0,4.339,0,8.678c0,.2-.095.42.106.583-.29.2.021.4.008.6a6.237,6.237,0,0,0,0,.632c0,.017.082.054.092.045a1.873,1.873,0,0,0,.324-.324,12.87,12.87,0,0,1,1.051-1.292,8.056,8.056,0,0,0,.87-1.071,2.345,2.345,0,0,1,.441-.45c.093-.088.162-.043.208.118a1.955,1.955,0,0,0,.074.189c.064-.031.146-.047.188-.1.118-.138.214-.295.33-.436a.306.306,0,0,1,.479-.079c.1.07.3.144.312-.13,0-.022.056-.063.081-.06.088.01.174.047.263.052a.477.477,0,0,0,.162-.049c.021.082.045.164.064.247.033.146.149.074.283.124.035.011.017-.011,0-.033l-.051.051a.506.506,0,0,0,.069.051s.023-.022-.016-.069c-.008-.243.159-.165.247-.121.107.053.043.153-.03.225a.081.081,0,0,0,0,.075c.226.111.11.3.14.47.023.126.094.24-.007.345a.653.653,0,0,1-.578.3c-.106-.089.155.054.173-.172,0-.019.009-.047,0-.056-.051-.047-.174,0-.352.121a.465.465,0,0,0-.08.08.063.063,0,0,0-.012.038C213.1,304.3,213.129,304.311,213.338,304.269ZM206.153,288.8v-5.517c0-.153,0-.307,0-.46,0-.032-.028-.064-.044-.1-.023.04-.066.08-.066.121,0,.536.012,1.073-.007,1.609s-.1,1.041-.106,1.562c-.015,1.475-.005,2.95-.005,4.425,0,.211,0,.421,0,.632a1.939,1.939,0,0,1-.028.564c-.056.168.05.332-.066.513-.069.107.06.338.095.515a.374.374,0,0,1-.1.35c.163.107.1.274.1.417.008.268,0,.536,0,.8a3.111,3.111,0,0,1-.015.8,1.183,1.183,0,0,0,.027.709c.048.143-.221.2-.048.326.152.113-.145.216,0,.371a.449.449,0,0,1,.021.43c-.159.233-.085.473-.1.708s0,.46,0,.689v.632a2.037,2.037,0,0,1-.016.683c-.086.225.066.4.021.6-.031.139.038.3-.114.409.167.1.114.272.1.415-.017.254.1.529-.108.76a.106.106,0,0,0,.019.1c.149.079-.109.27.093.329-.014.16.058.341-.108.467.167.1.105.271.106.415,0,.977,0,1.954,0,2.931a.966.966,0,0,1-.1.479c-.056.108.056.3.1.46a.628.628,0,0,0,.066.124c.016-.032.044-.063.045-.1,0-.172,0-.345,0-.517,0-.153-.063-.377.013-.444.146-.129-.04-.272.088-.4.077-.079.014-.293.014-.446v-.517q0-3.735,0-7.471c0-.171.008-.341.012-.512.286-.092-.131-.335.1-.44a1.53,1.53,0,0,1-.082-1.151,6.669,6.669,0,0,0,.085-1.337C206.159,292.092,206.153,290.444,206.153,288.8Zm1.38,5.065V298.8c0,.134,0,.268,0,.4,0,.016.046.034.074.043.008,0,.035-.024.036-.039,0-.057,0-.115,0-.172V288.811a.974.974,0,0,0,0-.172c0-.019-.046-.034-.074-.043-.008,0-.035.025-.036.039,0,.115,0,.23,0,.344Zm.575,9.432v-3.042c0-.115,0-.23,0-.344,0-.017-.046-.035-.073-.045-.008,0-.037.025-.037.039,0,.134,0,.268,0,.4v5.855c0,.115-.006.23,0,.344,0,.037.047.07.072.105a.305.305,0,0,0,.038-.1Q208.109,304.9,208.107,303.294Zm-.448-3.434-.051-.345c-.149.1-.06.258-.07.387a2.1,2.1,0,0,0,.034.381C207.721,300.179,207.611,300.023,207.659,299.86Zm.333-.479c.025.109-.063.244.076.327.013-.108.028-.215.038-.324a.64.64,0,0,0,0-.169c0-.019-.046-.034-.074-.042-.008,0-.035.024-.036.038C207.99,299.268,207.992,299.324,207.992,299.381Zm-5.882,3.977c-.012-.018-.037-.066-.042-.063a.434.434,0,0,0-.164.088c-.015.016.032.09.051.137Zm4.025,5.883c-.147-.061-.195-.093-.207-.083a.936.936,0,0,0-.12.134c.031.019.067.06.091.054A1.685,1.685,0,0,0,206.136,309.241Zm1.81-12.059c-.03.045-.067.076-.064.1a.582.582,0,0,0,.054.143c.019-.029.055-.059.054-.087A.689.689,0,0,0,207.945,297.181Zm.158,1.372c-.026-.042-.043-.088-.057-.088a.821.821,0,0,0-.151.035c.014.025.028.071.044.072A.873.873,0,0,0,208.1,298.554Zm-.019.479a.88.88,0,0,0,.02-.164c0-.016-.047-.029-.072-.043a.822.822,0,0,0-.035.151C208,298.989,208.042,299.006,208.084,299.033Zm-.427,4.7-.067-.1a.583.583,0,0,0-.053.143c0,.027.034.058.053.087Zm0,1.523-.067-.129c-.019.029-.056.06-.053.087a.6.6,0,0,0,.053.143Zm-.067-3.693c-.012.013-.038.028-.036.038a.367.367,0,0,0,.036.077c.013-.013.038-.028.036-.038A.347.347,0,0,0,207.59,301.566Zm.058,1.437c-.013-.013-.028-.038-.038-.036a.345.345,0,0,0-.077.036c.013.013.028.038.038.036A.361.361,0,0,0,207.648,303Zm-6.594,1.076.041-.041a.369.369,0,0,0-.077-.036c-.009,0-.025.023-.038.036Zm6.5,1.815.041.041a.359.359,0,0,0,.036-.077c0-.009-.023-.025-.036-.038Zm-.862,1.289.041-.041a.362.362,0,0,0-.077-.036c-.009,0-.025.023-.038.036Zm3.736.321.041.041a.36.36,0,0,0,.036-.077c0-.009-.023-.025-.036-.038Z" transform="translate(0)" fill="#212a2c"/></g></svg>