<svg xmlns="http://www.w3.org/2000/svg" width="40.564" height="32.108" viewBox="0 0 40.564 32.108"><g transform="translate(7.277 32.108) rotate(-110)"><path d="M9.774,17.788c-.078.074-.2.133-.229.224-.241.684-.512,1.357-.785,2.03-.184.454-.338.919-.521,1.373a1.1,1.1,0,0,1-.232.315c-.1.1-.128.012-.113-.065.052-.267-.126-.242-.281-.222-.067.009-.124.1-.188.106a.34.34,0,0,0-.3.121,2.248,2.248,0,0,0-.06-.329c-.018-.054-.084-.093-.128-.139-.034.036-.1.077-.1.107a.278.278,0,0,1-.168.335A.876.876,0,0,1,6,21.6a3.053,3.053,0,0,1-.59-.411c-.147-.153-.4-.146-.493-.4-.054-.143-.34-.187-.5-.3-.336-.239-.647-.515-.991-.74s-.634-.467-.95-.7a6.3,6.3,0,0,0-1.193-.8,2.349,2.349,0,0,1-.558-.5c.264-.233-.295-.171-.132-.368a.52.52,0,0,0-.08-.032C.383,17.56.3,17.2.184,17.317A1.53,1.53,0,0,1,.01,16.98a.787.787,0,0,1,.025-.339.759.759,0,0,1,.129-.354,1.765,1.765,0,0,1,.415-.265A4.262,4.262,0,0,1,1.4,15.73c.413-.132.8-.365,1.211-.481.686-.191,1.327-.5,2-.7.422-.122.81-.334,1.244-.414s.806-.345,1.233-.428.8-.3,1.2-.36a.844.844,0,0,0,.748-.735c.052-.251.317-.362.284-.665-.022-.2.17-.428.277-.638a7.664,7.664,0,0,1,.516-1.26c.077-.1-.021-.245-.129-.35-.505-.493-1.011-.987-1.5-1.5a4,4,0,0,1-.618-.68,2.73,2.73,0,0,0-.628-.557,1.057,1.057,0,0,1-.382-.647c.012-.036-.011-.017-.034,0l.052.052A.517.517,0,0,0,6.936,6.3s-.022-.023-.071.017a1.366,1.366,0,0,1-.637-.471,1.322,1.322,0,0,0-.649-.549c-.087-.236-.312-.333-.48-.491-.265-.25-.491-.541-.743-.806-.084-.088-.213-.134-.289-.227-.051-.062-.191-.064-.121-.251S3.756,3.5,3.685,3.4c-.056-.078-.049-.166-.185-.233a2.319,2.319,0,0,1-.594-.555c-.1-.107-.147-.311-.258-.347a.791.791,0,0,1-.319-.227c-.323-.315-.644-.632-.956-.958A1.024,1.024,0,0,1,1.165.758C.92.138,1.1-.07,1.613.02A1.811,1.811,0,0,1,2.5.3c.142.111.335.135.442.335.089.166.333.26.391.427a.946.946,0,0,0,.535.533c.148.079.225.283.352.411s.269.207.394.321c.146.132.336.252.4.42.1.255.371.285.513.481a2.592,2.592,0,0,0,.541.536.749.749,0,0,1,.181.153,2.435,2.435,0,0,0,.614.583c.251.161.578.35.557.751-.006.118.271-.042.174.166-.12.257.238.025.211.211-.005.037.115.228.238.049.042.029.085.057.125.088a28.916,28.916,0,0,1,2.159,2.038c.121.119.265.215.391.33a.482.482,0,0,1,.107.161,1.344,1.344,0,0,1,.033.156c.294-.026.395.2.546.382a5.075,5.075,0,0,0,.514.451c.186.174.359.362.544.538.088.084.143.128.029.263-.058.069-.219.293.04.4a5.136,5.136,0,0,1-.129.6,1.214,1.214,0,0,0-.161.669v-.089c-.033.014-.083.018-.1.043a2.127,2.127,0,0,0-.135.295c-.01.028.017.069.026.1.042-.022.1-.033.121-.068a.677.677,0,0,0,.085-.285.175.175,0,0,1,.176-.089c0,.042.01.093-.01.123-.081.124-.093.214.089.229.078.007.219.265.232-.061,0-.062.174-.163.269-.164.237,0,.406-.343.68-.131.01.008.09-.041.087-.052-.062-.258.216-.233.3-.265a6.405,6.405,0,0,1,.6-.244,1.35,1.35,0,0,0,.61-.251.175.175,0,0,1,.271.1c.06.189.154.339.41.142.112-.086.342-.027.516-.012.046,0,.08.094.127.137.026.024.082.056.1.045.269-.18.458-.054.649.144.162.168.508.253.2.584-.035.037,0,.148.019.221,0,.02.069.044.1.036s.059-.053.088-.082c-.014-.014-.042-.031-.039-.041.033-.148.071-.3.107-.444.151.111.072.271.071.4a4.79,4.79,0,0,1-.207,1.265c-.066.231.044.5-.14.707,0,.548-.29,1.053-.236,1.609A9.159,9.159,0,0,0,17,16.892a5.9,5.9,0,0,0-.157.935,2.785,2.785,0,0,1-.095.372,3.018,3.018,0,0,0-.16.824,2.541,2.541,0,0,1-.19.915c-.09.2-.021.428-.126.655a3.583,3.583,0,0,0-.141.941c-.025.163-.078.32-.115.481-.058.255-.1.514-.139.772a5.2,5.2,0,0,0-.1.719c0,.067-.072.129-.083.2a8.183,8.183,0,0,0-.165.821,8.007,8.007,0,0,1-.255,1.242c-.016.07-.08.136-.077.2.026.61-.211,1.184-.24,1.786-.24.3-.031.7-.224,1.027-.165.281-.1.645-.232.961a2.488,2.488,0,0,0-.014.788c0,.088.007.028,0-.029a.456.456,0,0,0-.056-.118c-.02.031-.055.061-.057.093a.817.817,0,0,1-.108.488c-.048.067.035.23.059.349a2.268,2.268,0,0,0,.16-.344,2.186,2.186,0,0,0,.005-.439,1.127,1.127,0,0,1,.113-.3c.025-.09,0-.2.035-.281.022-.059.1-.094.16-.141a.636.636,0,0,1,.042.158,2.872,2.872,0,0,1-.2.8.4.4,0,0,0-.024.22.262.262,0,0,0,.154.1c.281-.314.71-.443.983-.747A5.588,5.588,0,0,1,16.6,29.7c.281-.215.519-.48.816-.68.421-.284.8-.63,1.2-.948.091-.073.186-.084.216.049.059.263.215.151.343.092A1.042,1.042,0,0,0,19.5,28c.1-.1.154-.072.211.018.123.192.316.134.479.118.247-.024.266-.037.532.176a.413.413,0,0,0,.147.064c.123.035.351-.1.319.183-.014.127.194.241.009.381-.038.029,0,.151-.008.228a.478.478,0,0,1-.055.145c-.281-.09-.347.2-.514.3-.191.114-.344.284-.588.3-.046,0-.127.043-.13.073-.03.28-.205.163-.334.117-.064-.023-.121-.131-.14.021-.026.206-.035.247-.161.356-.144.125-.287.251-.435.371-.174.142-.287.084-.314-.171.012-.035-.011-.017-.034,0l.052.052a.535.535,0,0,0,.052-.071s-.022-.024-.071.017c-.1.066-.193.056-.243.095-.119.092-.233.306-.324.294-.242-.034-.1.3-.361.278,0-.031.068-.061.064-.078a.889.889,0,0,0-.073-.181c-.052.034-.13.057-.149.1s.047.1.157.155c.076.217.088.457-.266.454-.045,0-.089.084-.136.127a.39.39,0,0,1-.09.065c-.2-.2-.227-.045-.292.117-.056.138-.154.112-.3.052-.177-.074-.137.117-.145.222-.033.014-.088.02-.1.043-.037.1-.053.292-.091.3-.2.017-.309.243-.523.19a.31.31,0,0,0-.114.016c.1.276-.171.337-.3.383-.338.122-.482.466-.807.608-.4.174-.76.435-1.144.648-.033.018-.108-.041-.163-.064-.028.067-.038.152-.087.2a4.288,4.288,0,0,1-.355.273c-.124.093-.242.207-.386.014a2.925,2.925,0,0,0-.273.145,2.775,2.775,0,0,1-.646.278,1,1,0,0,1-.581-.1c-.135-.067-.22-.243-.316-.378a.759.759,0,0,1-.069-.19c-.055.055-.151.106-.158.167-.019.156-.042.235-.172.072a1.887,1.887,0,0,1-.208-.325c-.243-.487-.506-.961-.713-1.469-.134-.328-.294-.662-.452-.988-.332-.686-.676-1.366-.994-2.059-.271-.592-.487-1.211-.779-1.793a1.172,1.172,0,0,1-.095-.662.473.473,0,0,1,.2-.351c.126-.052.221.089.263.234.013.046.106.069.162.1a1.027,1.027,0,0,0,.065-.144c.01-.036,0-.079,0-.117.015-.071.039-.14.059-.21.067.028.157.038.2.088.1.126.177.11.311.042.068-.034.2.053.3.094.532.215.717.746,1,1.168a11.851,11.851,0,0,1,.6,1.042c.136.26.159.574.431.765.125.088-.037.315.167.4.1.044.187.088.228-.031a1.714,1.714,0,0,0,.114-.538,1.97,1.97,0,0,1,.121-.6c.06-.194-.052-.4.1-.609.114-.152-.078-.424.136-.587a4.269,4.269,0,0,1,.262-1.425A9.38,9.38,0,0,1,12,25.144c.083-.194-.029-.455.132-.651-.047-.46.248-.859.236-1.314.165-.152.1-.354.121-.539.022-.163.084-.319.112-.481a2.338,2.338,0,0,1,.14-.82c.168-.263-.01-.564.2-.808.107-.122-.083-.382.1-.539-.046-.5.331-.918.261-1.421.158-.28.08-.615.218-.91.043-.092.194-.27.032-.417.19-.121.022-.354.132-.471.134-.143.022-.324.1-.43.117-.161.06-.335.115-.485.185-.507.05-1.079.338-1.566.052-.087.008-.231.007-.349,0-.3-.056-.342-.329-.23-.089.037-.145.115-.246.029-.227-.192-.278.031-.366.161-.086.027-.216.028-.25.086a.882.882,0,0,1-.825.392c-.174.008-.442-.143-.486.2a1.055,1.055,0,0,0-.124-.067c-.1-.037-.188-.054-.2.094-.284-.071-.248.207-.348.331-.056.069.07.24-.123.258v-.176c-.055.016-.144.015-.16.049a7.382,7.382,0,0,0-.419,1c-.076.262-.332.468-.246.778A1.15,1.15,0,0,0,9.774,17.788ZM5.065,3.544l.1-.039-.1-.079a.47.47,0,0,0-.17-.118h.052a.326.326,0,0,0-.036-.089c-.005-.007-.047.012-.071.019a.183.183,0,0,0,.107.07l.118.118v.118a.326.326,0,0,0-.089.036c-.008.006.012.047.019.071A.183.183,0,0,0,5.065,3.544ZM8.95,18.729c.176-.01.1-.146.118-.236.227-.055.073-.237.118-.353.176-.01.1-.146.189-.519a1.449,1.449,0,0,0-.07.174.488.488,0,0,0,0,.109c.039-.027.1-.047.112-.083s-.017-.1-.112.083c-.176.01-.1.146-.118.236-.227.055-.073.237-.118.353-.176.01-.1.147-.095.342L8.9,18.729c-.021.027-.06.055-.059.081a.561.561,0,0,0,.045.145A.356.356,0,0,0,8.95,18.729Zm.612-1.307-.078-.106c-.021.027-.06.055-.059.081a.577.577,0,0,0,.045.145.356.356,0,0,0,.069-.226c.176-.01.1-.146.118-.236.227-.055.073-.237.26-.837a3.329,3.329,0,0,0-.139.309.494.494,0,0,0,0,.174s.05.007.054,0c.062-.131.122-.262.175-.4,0-.011-.042-.042-.232.4-.227.055-.073.237-.118.353C9.48,17.091,9.556,17.227,9.562,17.423Zm1.86-5.168c.215.119.226.114.377-.6a3.329,3.329,0,0,0-.139.309.494.494,0,0,0,0,.174s.051.007.054,0c.062-.131.122-.262.176-.4,0-.011-.042-.042-.232.4-.089.017-.226-.058-.236.17v-.052a.318.318,0,0,0-.089.036c-.007.005.013.046.02.071A.184.184,0,0,0,11.422,12.255ZM8.714,19.318c-.227.055-.073.237-.117.353-.176.01-.1.146-.118.428v-.193c-.039.031-.1.056-.113.093-.035.154-.233.278-.092.465a.089.089,0,0,0,.039.017,1.846,1.846,0,0,0,.167-.576c.176-.01.1-.146.118-.236.227-.055.073-.237.189-.636a1.447,1.447,0,0,0-.07.174.488.488,0,0,0,0,.109c.039-.027.1-.047.112-.083S8.81,19.139,8.714,19.318Zm5.768,8.865a1.222,1.222,0,0,0,0-.169.324.324,0,0,0-.047-.093c-.023.022-.064.043-.065.066a3.141,3.141,0,0,0,0,.339c0,.02.035.038.054.057a.358.358,0,0,0,.059-.087c.01-.035,0-.075-.116.313a.465.465,0,0,0,0-.112.63.63,0,0,0-.055-.113.6.6,0,0,0-.058.143.99.99,0,0,0,0,.226.3.3,0,0,0,.047.093.7.7,0,0,0,.066-.123C14.374,28.686,14.365,28.646,14.483,28.183Zm1.53-8.159c.039-.047.107-.091.112-.141a4.447,4.447,0,0,0,.005-.447c.039-.048.1-.093.112-.147.02-.13-.027-.282.024-.392a2.562,2.562,0,0,0,.216-1.228c.039-.047.107-.091.112-.141a23.487,23.487,0,0,1,.5-2.65l-.1-.13c-.032.129-.09.232-.241.242.021.041.064.085.06.124-.01.1-.093.229-.056.276a.358.358,0,0,1,.054.367,3.49,3.49,0,0,0-.2,1.205.349.349,0,0,0,.056.117.765.765,0,0,0,.057-.152,4.885,4.885,0,0,1,.167-.988,3.072,3.072,0,0,0,.071-.5c.042-.178.089-.356-.354,1.638-.039.047-.107.091-.112.141a4.358,4.358,0,0,0-.006.447.265.265,0,0,0-.056,0,3.292,3.292,0,0,0-.06.38c-.011.182-.291-.149-.238.131-.195.155-.122.283.035.411a.13.13,0,0,1,.036.118c-.144.231-.039.485-.071.725-.039.047-.107.091-.112.141-.015.148-.005.3-.005.732a1,1,0,0,0,0-.171.465.465,0,0,0-.054-.114.518.518,0,0,0-.058.145,2.706,2.706,0,0,0,0,.341c0,.032.031.062.047.093a.5.5,0,0,0,.065-.125A4.017,4.017,0,0,0,16.013,20.024Zm-.589,3.228a1.034,1.034,0,0,0,0-.171.449.449,0,0,0-.055-.114.519.519,0,0,0-.058.145,2.7,2.7,0,0,0,0,.341c0,.032.031.062.047.093a.5.5,0,0,0,.066-.124,6.109,6.109,0,0,1,.12-.654,1.223,1.223,0,0,0,0-.169.319.319,0,0,0-.047-.093c-.022.022-.064.042-.065.066a3.14,3.14,0,0,0,0,.339c0,.02.035.038.054.057a.342.342,0,0,0,.059-.087C15.55,22.846,15.542,22.806,15.425,23.252Zm-.436-2.8c-.039-.08-.053-.153-.1-.184s-.3.13-.275.155a.939.939,0,0,0,.259.163c.014.006.07-.081.214-.465l-.067-.2c-.023.04-.066.081-.064.12a1.213,1.213,0,0,0,.052.224C15.034,20.215,15.059,20.171,14.988,20.449Zm-2.959-9.613-.13.059c.156.108.106.27.112.418.033-.014.091-.021.1-.042.023-.089,0-.213.051-.27.211-.23-.021-.14-.123.418l-.078-.106c-.021.027-.06.055-.059.081a.574.574,0,0,0,.045.144C11.969,11.5,12,11.468,12.029,10.836Zm-1.667,4.67v-.191c-.033.013-.087.018-.1.042q-.135.321-.254.65c-.01.027.017.068.027.1.027-.008.072-.008.08-.024a4.714,4.714,0,0,0,.315-1.053,1.529,1.529,0,0,0-.07.174.51.51,0,0,0,0,.109c.039-.027.1-.047.112-.083S10.458,15.136,10.362,15.507Zm6.945-1.667a1.707,1.707,0,0,0,0-.232,1.252,1.252,0,0,0-.057-.176,1.025,1.025,0,0,0-.058.151c-.064.306-.127.611-.185.918-.006.033.019.072.029.108.051-.019.14-.029.146-.058.053-.254.092-.51.2-1.4a1.455,1.455,0,0,0-.069.174.491.491,0,0,0,0,.109c.039-.027.1-.047.112-.083S17.4,13.252,17.308,13.84Zm-1.177.534c.089-.069.181-.134.264-.209.03-.027.062-.1.048-.12-.171-.271-.033-.568-.008-.957l-.069.056.053.052a.564.564,0,0,0,.052-.071s-.023-.024-.1.071a5.574,5.574,0,0,0-.35.932c.027.085.075.164.161.385-.054-.074-.084-.138-.1-.134a.888.888,0,0,0-.181.073c.034.052.057.13.1.149S16.1,14.554,16.131,14.374Zm-.943,10.244c0-.182,0-.241,0-.3,0-.015-.032-.042-.038-.039-.027.013-.071.033-.072.053a1.767,1.767,0,0,1-.017.347,1.616,1.616,0,0,1-.231.547c-.168.21.1.372.01.556-.008.016.008.049,0,.057-.219.188-.079.439-.113.658-.006.035.036.078.055.117.02-.031.057-.062.056-.093a8.987,8.987,0,0,1,.241-1.489c.027-.18.1-.354-.356,1.808a.452.452,0,0,0,0-.113.628.628,0,0,0-.054-.113.6.6,0,0,0-.059.143.99.99,0,0,0,0,.226.29.29,0,0,0,.047.093.7.7,0,0,0,.066-.123C14.727,26.921,14.718,26.88,15.187,24.618Zm.257-6.409-.082-.186c-.019.037-.057.077-.052.111a1.6,1.6,0,0,0,.065.232c.021-.047.042-.095.405-1.852a.658.658,0,0,0-.023-.209c-.013-.032-.1-.033-.15-.049,0,.04-.021.091,0,.117.077.115.112.211-.073.235a.136.136,0,0,0-.1.217c.112.206.145.378-.089.518-.009.005,0,.058.014.079.141.2.1.335-.142.407-.016,0-.015.1,0,.151a.1.1,0,0,0,.093.039c.084-.054.212-.108.229-.183C15.63,17.4,15.7,16.968,15.444,18.209Zm-9.725-1.6h.052a.328.328,0,0,0-.036-.089c-.006-.007-.047.012-.071.02.018.023.036.047,1.751-.355-.04-.013-.111-.06-.137-.042-.281.194-.632.17-.929.3a7.928,7.928,0,0,1-.786.282c-.277.092-.516.306-.841.238a.179.179,0,0,0-.141.073c-.1.149-.244.149-.4.166a2.642,2.642,0,0,0-.516.161c.106.11.206.226.318.33a2.553,2.553,0,0,0,.314.222c.51.342,1,.723,1.477,1.106.3.236.3.25.472-.088.091-.176.151-.367.239-.545.146-.292.236-.606.363-.9.171-.4.381-.779.57-1.17C7.428,16.288,7.415,16.243,5.719,16.61Zm7.416,6.357h.052a.328.328,0,0,0-.036-.089c-.006-.007-.047.012-.072.019a.183.183,0,0,0,.107.07,1.219,1.219,0,0,1-.087.258.866.866,0,0,0-.095.452.921.921,0,0,1-.251.73c-.029.044,0,.132.012.2s.072.168.047.2c-.189.205-.059.448-.1.668a1.134,1.134,0,0,1-.029.282c-.039.083-.168.132-.191.214s.087.236.051.273c-.164.168,0,.4-.167.591-.126.143.051.436-.107.656a.428.428,0,0,0-.063.521c-.165.142-.015.348-.091.491a.791.791,0,0,0-.106.485c.017.135-.057.208-.131.3s-.22.295-.183.355c.251.407-.1.773-.043,1.158-.22.155.119.319-.012.487-.213.273-.064.6-.1.9,0,.025.039.055.06.083a.432.432,0,0,0,.054-.1,11.888,11.888,0,0,0,.333-1.621c.067-.54.175-1.077.285-1.6a9.045,9.045,0,0,1,.443-1.87c-.046-.554.245-1.059.236-1.608.194-.2.048-.486.152-.7a3.843,3.843,0,0,0,.151-.489,4.891,4.891,0,0,0,.052-.624c.02-.087.038-.2.1-.248.152-.116.123-.267.137-.419a3.6,3.6,0,0,1,.054-.74,11.047,11.047,0,0,0,.28-1.234,4.157,4.157,0,0,1,.139-.887,1.171,1.171,0,0,0,.112-.856c.218-.124.036-.374.161-.521.148-.175.033-.376.078-.558a1.286,1.286,0,0,1,.184-.505c.057-.07.233-.033.063-.178-.095-.081-.169-.148-.017-.253.126-.086.191-.195.034-.327a.157.157,0,0,1-.014-.152c.287-.381.033-.953.453-1.284a.3.3,0,0,0-.041-.041c-.241-.174.081-.283.055-.451a.577.577,0,0,1,.079-.55c.147-.155-.171-.363.023-.54.011-.01-.017-.067-.032-.1a.283.283,0,0,1-.014-.251l-.068.056.052.052a.569.569,0,0,0,.052-.071s-.023-.024-.1.071c-.033.014-.1.031-.1.041.052.5-.34.919-.257,1.423-.243.124-.068.383-.182.574-.1.175-.029.451-.058.679a.837.837,0,0,1-.135.41c-.134.165-.065.172.083.176.01,0,.019.052.028.08-.361.05-.147.229-.1.385a.3.3,0,0,1-.036.207c-.3.021-.164.243-.2.388-.02.093.219.163.023.264-.151.077-.071.188-.055.292-.307.033-.165.273-.207.434-.029.109.262.3-.083.327a.619.619,0,0,0,.025.2.35.35,0,0,1-.14.526c.051-.062.082-.082.081-.1a.951.951,0,0,0-.027-.152c-.026.007-.074.013-.074.02a.194.194,0,0,0,.1.186c-.038.1-.135.259-.1.288.155.151.121.256-.025.374a.374.374,0,0,0-.084.117c.231.2,0,.286-.089.41-.03.041-.061.137-.047.147.182.131.023.319-.017.36-.151.153-.114.253.008.384.018.019-.028.1-.045.149-.285-.223-.169.062-.183.152a.463.463,0,0,0,.109.42A.46.46,0,0,1,13.135,22.967ZM8.421,15.755c-.039.2-.282.08-.314.318a3.047,3.047,0,0,1-.333.738,2.457,2.457,0,0,1-.355.734c.083.332-.231.492-.324.747a.436.436,0,0,0-.025.222.818.818,0,0,1-.149.528c-.081.164-.231.295-.316.458-.024.047.065.162.121.232a.2.2,0,0,0,.155-.06,3.445,3.445,0,0,0,.288-.643,5.226,5.226,0,0,1,.372-.845c.249-.524.39-1.092.668-1.6a4.839,4.839,0,0,0,.266-.653C8.488,15.89,8.447,15.834,8.421,15.755Zm2.312-5.242c-.033-.066-.045-.123-.066-.126-.051-.008-.126-.01-.154.02a.712.712,0,0,0-.147.231c-.1.254-.168.519-.276.768-.167.382-.358.754-.535,1.131a.178.178,0,0,0-.013.111.554.554,0,0,0,.077.192c.009.013.108-.017.147-.049a1.854,1.854,0,0,0,.467-.98,1.138,1.138,0,0,1,.241-.549C10.694,11.045,10.551,10.714,10.733,10.513Zm4.8,11.619.083.23c.014-.092.026-.185.042-.277.01-.054.028-.106.041-.16a4.316,4.316,0,0,0,.192-1.1c0-.032-.035-.063-.053-.095a.8.8,0,0,0-.082.077c-.035.043-.1.1-.092.135C15.738,21.336,15.538,21.694,15.535,22.131Zm.455-7.371c-.019-.009-.045-.023-.045-.022-.018.032-.03.067-.051.1a1.359,1.359,0,0,0-.114.834,4.12,4.12,0,0,0,.038.453c.15-.111.01-.294.083-.4.163-.236.035-.529.172-.753C16.166,14.821,16,14.833,15.991,14.761Zm-4.63-4.033c-.027.027-.054.056-.083.082a1.129,1.129,0,0,0-.324.857.293.293,0,0,0,.039.1.76.76,0,0,0,.075-.109c.12-.261.238-.524.352-.788.012-.028-.008-.072-.02-.107C11.395,10.749,11.374,10.739,11.36,10.727Zm3.476,10.565a.631.631,0,0,0,0-.114c-.013-.069-.034-.137-.052-.206-.054.05-.11.1-.161.149-.185.194-.184.255,0,.4.093.072.2.046.212-.055A1.48,1.48,0,0,0,14.836,21.293ZM14.6,27.521c-.128-.05.137-.229-.078-.3-.013.111-.029.221-.039.331a.654.654,0,0,0,0,.173c0,.019.047.035.075.043.008,0,.036-.024.037-.039C14.6,27.675,14.6,27.617,14.6,27.521ZM6.833,5.427a.962.962,0,0,0-.17,0c-.021,0-.038.045-.049.072,0,.007.022.03.038.038a.611.611,0,0,0,.235.108c.053,0,.107-.093.161-.145a.451.451,0,0,0-.1-.075A.338.338,0,0,0,6.833,5.427Zm8.474,18.541a2.1,2.1,0,0,0,0-.231c0-.017-.049-.03-.075-.044l0,.43c.027-.013.069-.021.077-.041A.337.337,0,0,0,15.307,23.968ZM8.845,17.085c-.019-.05-.022-.077-.033-.08s-.064-.013-.077,0a.875.875,0,0,0-.136.169c-.014.023.009.068.016.1.04-.013.09-.016.117-.042A1.02,1.02,0,0,0,8.845,17.085Zm5.4,12.238a.994.994,0,0,0,0-.173c0-.017-.05-.027-.076-.04l0,.43c.026-.014.072-.026.075-.044A.99.99,0,0,0,14.247,29.323ZM.85,16.621l-.08-.126-.157.2c.032.013.074.044.1.034A.838.838,0,0,0,.85,16.621Zm7.633,1.228c-.035-.023-.077-.065-.092-.057a.5.5,0,0,0-.143.115c-.006.007.047.064.072.1ZM5.828,4.478l-.155.2c.032.013.08.047.094.037a.484.484,0,0,0,.119-.139C5.894,4.563,5.853,4.52,5.828,4.478ZM8.615,17.6l-.056-.143-.2.158c.03.019.064.058.089.053A.829.829,0,0,0,8.615,17.6Zm8.758,13.666a1.725,1.725,0,0,0-.146-.195A.836.836,0,0,0,17.108,31c-.011.052-.049.131-.029.149A1.176,1.176,0,0,0,17.373,31.265Zm-3.456-.208-.062-.182a.578.578,0,0,0-.075.157.452.452,0,0,0,.034.156Zm-.046-.594.1.138a.449.449,0,0,0,.036-.155.6.6,0,0,0-.073-.162Zm.282-.583-.062-.182a.581.581,0,0,0-.075.157.449.449,0,0,0,.034.156Zm-.474-2.711-.079-.2a.413.413,0,0,0-.055.148.932.932,0,0,0,.055.206ZM.772,16.115l-.043.1c.032.013.069.043.1.036a.354.354,0,0,0,.1-.074Zm.5.019a.429.429,0,0,0-.009-.09.772.772,0,0,0-.154,0,.254.254,0,0,0,0,.074A1.557,1.557,0,0,0,1.267,16.134ZM5.041,4.01a.894.894,0,0,0,.02-.168c0-.016-.048-.03-.074-.045a.849.849,0,0,0-.036.154C4.95,3.966,5,3.983,5.041,4.01Zm7.818,9.837-.1-.044c-.013.032-.043.069-.036.1s.048.068.073.1ZM10.7,12.128l-.1.068a.6.6,0,0,0,.147.055c.027,0,.059-.035.089-.055ZM17.56,30.335c-.046-.03-.078-.069-.1-.066a.6.6,0,0,0-.147.055c.03.019.06.056.089.055A.718.718,0,0,0,17.56,30.335Zm-2.865-8.541c-.043.027-.091.044-.09.058a.846.846,0,0,0,.036.154c.026-.015.073-.028.074-.044A.891.891,0,0,0,14.694,21.795ZM13.146,12l.042-.042a.375.375,0,0,0-.079-.037c-.01,0-.026.024-.039.037ZM6.52,4.738l-.042.042a.376.376,0,0,0,.079.037c.01,0,.026-.024.039-.037ZM6.73,5.856l.042.042a.369.369,0,0,0,.037-.079c0-.01-.024-.026-.037-.039Zm4.65,5.793.042-.042a.369.369,0,0,0-.079-.037c-.01,0-.026.024-.039.037Zm2.237.236.042-.042a.369.369,0,0,0-.079-.037c-.01,0-.026.024-.039.037Zm-2.96.488c-.013.013-.039.029-.037.039a.368.368,0,0,0,.037.079c.013-.013.039-.029.037-.039A.376.376,0,0,0,10.657,12.372Zm6.164,2.195-.042-.076c-.013.013-.039.029-.037.039a.351.351,0,0,0,.037.079Zm0,.236-.042-.076c-.013.013-.039.029-.037.039a.353.353,0,0,0,.037.079Zm-8.4.748c-.013.013-.039.029-.037.039a.353.353,0,0,0,.037.079c.013-.013.039-.029.037-.039A.376.376,0,0,0,8.42,15.551Zm.53.883c-.013-.013-.029-.039-.039-.037a.377.377,0,0,0-.079.037c.013.013.029.039.039.037A.353.353,0,0,0,8.95,16.434ZM.432,17.1l-.076.042c.013.013.029.039.039.037a.369.369,0,0,0,.079-.037Zm15.892.2.042-.042a.367.367,0,0,0-.079-.037c-.01,0-.026.024-.039.037ZM1.87,17.51l-.042-.076c-.013.013-.039.029-.037.039a.376.376,0,0,0,.037.079Zm13.984-.059-.076.042c.013.013.029.039.039.037a.369.369,0,0,0,.079-.037Zm-13.4.176-.042-.076c-.013.013-.039.029-.037.039a.367.367,0,0,0,.037.079Zm-.614.614.042-.042a.361.361,0,0,0-.079-.037c-.01,0-.026.024-.038.037Zm6.264.211-.042-.076c-.013.013-.039.029-.037.038a.363.363,0,0,0,.037.079Zm7.2.336c-.013-.013-.029-.039-.039-.037a.355.355,0,0,0-.079.037c.013.013.029.039.039.037A.353.353,0,0,0,15.307,18.788Zm-7.357.176c-.013.013-.039.029-.037.039a.376.376,0,0,0,.037.079c.013-.013.039-.029.037-.039A.363.363,0,0,0,7.949,18.965Zm-.059.294c-.013-.013-.029-.039-.038-.037a.362.362,0,0,0-.079.037c.013.013.029.039.039.037A.367.367,0,0,0,7.89,19.259Zm7.282.1-.042-.042a.376.376,0,0,0-.037.079c0,.01.024.026.037.039Zm-7.5.152.042.042a.37.37,0,0,0,.037-.079c0-.01-.024-.026-.037-.039ZM8.2,20.63l-.076.042c.013.013.029.039.039.037a.37.37,0,0,0,.079-.037Zm7.046,2.1c-.013.013-.039.029-.037.039a.368.368,0,0,0,.037.079c.013-.013.039-.029.037-.039A.369.369,0,0,0,15.248,22.732Zm-1.766,4.944c-.013.013-.039.029-.037.039a.363.363,0,0,0,.037.079c.013-.013.039-.029.037-.039A.36.36,0,0,0,13.482,27.676Zm5.785,1.043.042-.042a.377.377,0,0,0-.079-.037c-.01,0-.026.024-.039.037Zm-6.239.976-.076.042c.013.013.029.039.039.037a.376.376,0,0,0,.079-.037Zm-.093.967-.042-.042a.361.361,0,0,0-.037.079c0,.01.024.026.037.038Zm4.8.294.042-.042a.376.376,0,0,0-.079-.037c-.01,0-.026.024-.039.037Zm-1.236.53.042.076c.013-.013.039-.029.037-.039a.367.367,0,0,0-.037-.079Zm.412.211-.076.042c.013.013.029.039.039.037a.376.376,0,0,0,.079-.037Z" transform="translate(0 0)" fill="#fff"/><path d="M.137,4.356c-.036-.009-.08-.008-.1-.031A.118.118,0,0,1,0,4.225,10.174,10.174,0,0,0,.258,2.979,3.766,3.766,0,0,1,.584,1.712,3.16,3.16,0,0,1,.707.766C.746.529.783.291.834.056.841.028.93.018.981,0c.009.037.032.077.025.11C.948.379.876.644.827.914a2.441,2.441,0,0,1-.14.817C.52,1.994.636,2.272.5,2.539a3.17,3.17,0,0,0-.146.992c-.035.258-.078.514-.124.77C.224,4.323.169,4.337.137,4.356Z" transform="translate(16.131 18.023)" fill="#fff"/><path d="M.714.243c-.048.2-.095.4-.139.6s.07.409-.092.614c-.077.1-.008.3-.031.455s-.08.281-.112.423c-.045.2-.077.4-.122.6-.008.036-.052.063-.08.095L0,2.86c.185-.153.057-.367.107-.544A9.3,9.3,0,0,0,.462.4C.466.338.544.281.572.214A1.34,1.34,0,0,0,.623,0Z" transform="translate(14.732 26.627)" fill="#fff"/><path d="M.551.226C.506.437.456.652.416.869c-.037.2.089.43-.119.594.07.292-.106.547-.133.825,0,.022-.1.034-.148.051A.408.408,0,0,1,0,2.224c.057-.346.095-.7.185-1.036A3.735,3.735,0,0,1,.412.23,1.192,1.192,0,0,0,.489,0Z" transform="translate(15.363 24.16)" fill="#fff"/><path d="M0,2.542A1.424,1.424,0,0,0,.146,2.15,13.068,13.068,0,0,1,.389.669c.037-.2.076-.4.12-.594C.514.047.55.025.572,0,.589.032.625.066.621.095A8.318,8.318,0,0,1,.464,1.141c-.08.3-.134.609-.184.914a1.311,1.311,0,0,1-.124.537A.672.672,0,0,0,.107,2.8Z" transform="translate(17.037 15.087)" fill="#fff"/><path d="M0,1.094C.03.948.068.709.123.474.16.315.222.162.274.008.277,0,.313,0,.313,0A.461.461,0,0,1,.278.482.32.32,0,0,0,.241.7a1.465,1.465,0,0,1-.121.657c-.018.052-.037.1-.055.154a.689.689,0,0,1-.06-.144A1.985,1.985,0,0,1,0,1.094Z" transform="translate(15.892 22.514)" fill="#fff"/><path d="M.328.266c-.045.29-.089.579-.14.868,0,.019-.067.045-.094.037S0,1.109,0,1.1A5.9,5.9,0,0,0,.211.143.812.812,0,0,1,.271,0,1.272,1.272,0,0,1,.326.15.545.545,0,0,1,.328.266Z" transform="translate(17.805 12.493)" fill="#fff"/><path d="M.351.093C.288.261.231.43.16.594.142.634.081.655.04.685.026.633,0,.536,0,.534.235.455,0,.159.214.071A.357.357,0,0,0,.3,0Z" transform="translate(10.011 16.733)" fill="#fff"/><path d="M0,.589A.575.575,0,0,1,.238,0,.575.575,0,0,1,0,.589Z" transform="translate(8.595 20.495)" fill="#fff"/><path d="M0,.27C0,.154,0,.1,0,.039,0,.024.033,0,.041,0,.069.01.111.026.115.046a.6.6,0,0,1,0,.172C.109.29.091.361.078.432Z" transform="translate(17.778 13.805)" fill="#fff"/><path d="M.128,0C.083.116.237.3.01.353.055.237-.1.055.128,0Z" transform="translate(9.293 18.965)" fill="#fff"/><path d="M.01.353C.055.237-.1.055.128,0,.083.116.237.3.01.353Z" transform="translate(9.058 19.553)" fill="#fff"/><path d="M.01.353C.055.237-.1.055.128,0,.083.116.237.3.01.353Z" transform="translate(10.706 15.433)" fill="#fff"/><path d="M.138.138.074.317A.593.593,0,0,1,0,.155.445.445,0,0,1,.037,0Z" transform="translate(17.664 14.392)" fill="#fff"/><path d="M0,0H.12a.333.333,0,0,1,0,.115.436.436,0,0,1-.077.1A.551.551,0,0,1,0,.115.674.674,0,0,1,0,0Z" transform="translate(9.772 17.788)" fill="#fff"/><path d="M.074,0C.1.1.128.159.114.2S.042.256,0,.283A.49.49,0,0,1,0,.174,1.452,1.452,0,0,1,.074,0Z" transform="translate(9.654 18.093)" fill="#fff"/><path d="M.119,0C.1.089.178.225,0,.235.019.146-.057.01.119,0Z" transform="translate(10.832 15.198)" fill="#fff"/><path d="M.137.106.045.225A.575.575,0,0,1,0,.081C0,.055.038.027.059,0Z" transform="translate(9.542 18.376)" fill="#fff"/><path d="M.074,0C.1.1.128.159.114.2S.042.256,0,.283A.491.491,0,0,1,0,.174,1.471,1.471,0,0,1,.074,0Z" transform="translate(9.418 18.682)" fill="#fff"/><path d="M0,.236C.019.146-.057.01.119,0,.1.089.178.226,0,.236Z" transform="translate(9.184 19.318)" fill="#fff"/><path d="M.074,0C.1.1.128.159.114.2S.042.256,0,.283A.49.49,0,0,1,0,.174,1.434,1.434,0,0,1,.074,0Z" transform="translate(8.83 20.212)" fill="#fff"/><path d="M.137.106.045.226A.59.59,0,0,1,0,.081C0,.055.038.027.059,0Z" transform="translate(8.483 21.084)" fill="#fff"/><path d="M.076,0,.118.042A.369.369,0,0,1,.039.079C.029.081.013.055,0,.042Z" transform="translate(12.717 10.742)" fill="#fff"/><path d="M.079.076.037.118A.376.376,0,0,1,0,.039C0,.029.024.013.037,0Z" transform="translate(12.503 11.195)" fill="#fff"/><path d="M.108.069C.095.082.075.107.071.1A.589.589,0,0,1,0,.053L.052,0Z" transform="translate(13.305 13.903)" fill="#fff"/><path d="M.108.069C.094.082.075.107.071.1A.52.52,0,0,1,0,.052L.052,0Z" transform="translate(11.422 14.609)" fill="#fff"/><path d="M.091.052.021.107C.014.082-.006.041,0,.036A.327.327,0,0,1,.091,0Z" transform="translate(10.625 15.786)" fill="#fff"/><path d="M.037,0A.369.369,0,0,1,.074.079C.076.089.05.1.037.118A.37.37,0,0,1,0,.039C0,.029.024.013.037,0Z" transform="translate(10.384 16.375)" fill="#fff"/><path d="M.068,0C.082.014.107.033.1.037A.535.535,0,0,1,.052.108L0,.056Z" transform="translate(9.892 17.679)" fill="#fff"/><path d="M.091.052.021.107C.014.082-.006.041,0,.036A.318.318,0,0,1,.091,0Z" transform="translate(8.977 19.907)" fill="#fff"/><path d="M.108.069C.095.082.075.107.071.1A.593.593,0,0,1,0,.052L.053,0Z" transform="translate(16.366 32.385)" fill="#fff"/></g></svg>